# xmcd
#
# Track frame offsets:
#       150
#       13035
#       28935
#       44817
#       62652
#       77082
#       93682
#       107560
#       121704
#       134355
#       151712
#       167162
#
# Disc length: 2429 seconds
#
# Revision: 1
# Processed by: cddbd v1.5.1PL0 Copyright (c) Steve Scherf et al.
# Submitted via: MusiCat 1.1
#
DISCID=99097b0c
DTITLE=Paulo Moura - hepteto
DYEAR=1900
DGENRE=
TTITLE0=General da banda
TTITLE1=Samba de orfeu
TTITLE2=Travessia
TTITLE3=Bonita
TTITLE4=No brilho da faca
TTITLE5=Homem do meu mundo
TTITLE6=Wave
TTITLE7=Das tardes mais sós
TTITLE8=Bitucada
TTITLE9=Nem precisou mais um sol
TTITLE10=Três Pontas
TTITLE11=Outubro
EXTD=\n\n
EXTT0=
EXTT1=
EXTT2=
EXTT3=
EXTT4=
EXTT5=
EXTT6=
EXTT7=
EXTT8=
EXTT9=
EXTT10=
EXTT11=
PLAYORDER=
